/* XPM */
static char *ce66fdc9f82949bedd6b14f6d40a9080SfnEfOqt0brfwMkO[] = {
/* columns rows colors chars-per-pixel */
"64 64 21 1 ",
"  c #7B7E3B",
". c #7C7F3C",
"X c #7D803D",
"o c #7E813E",
"O c #7F823F",
"+ c #808340",
"@ c #818441",
"# c #828542",
"$ c #838643",
"% c #848744",
"& c #858845",
"* c #868946",
"= c #878A47",
"- c #888B48",
"; c #898C49",
": c #8A8D4A",
"> c #8B8E4B",
", c #8C8F4C",
"< c #8D904D",
"1 c #8E914E",
"2 c #8F924F",
/* pixels */
"@+=,===oo===;=o@;%@@o@;-@=@@==@=%@=;%==@o===;=o@;%@@o@;-@=@@==@=",
"=@==@%-%=;=@%@@-=@==@%=@==@o==%-@+=;===o=;=@%@@-=@==@%=@==@o==%-",
"-@%=+@-==;%+@@@;%@=;%==@o=%=,-@@;@%%o@-==;%+@@@;%@=;%==@o=%=,-@@",
"%@=;===+@-=%=%+=;@%%+@-=o=%=;-@@-@%=+@-=@-=%=%+=;@%%+@-=o=%=;-@@",
"%@=;===+@-=%=%+=;@%%+@-=--@o@=%;oo-2;==.@-=%=%+=;@%%+@-=--@o@=%;",
"-@%=+@-==;%+@@@;%@=;%==@+=%%;-@@=@==@%-%=;%+@@@;%@=;%==@+=%%;-@@",
"=@==@%-%=;=@%@@-=@==@%=@.@=;2;oo,%@@o@;;=;=@%@@-=@==@%=@.@=;2;oo",
"@+=,===oo===;=o@;%@@o@;-;;+.@%=,oo-2;=% o===;=o@;%@@o@;-;;+.@%=,",
"=@==@@=%=;@o@@%;=@%=@=-@@=@%;=@%=@==@@=%=;@o@@%;=@%=@=-@@=@%;=@%",
"-@==o@-=@=%@-=@==@%=@=-@o=%=,-@@-@==o@-=@=%@-=@==@%=@=-@o=%=,-@@",
"@+-,===o@==%;=@%=@@=@=;%=-@o==%;@+-,===o@==%;=@%=@@=@=;%=-@o==%;",
"@+-;=%=+=-@+=%@--@@%@=;===@+==@-@+-;=%=+=-@+=%@--@@%@=;===@+==@-",
";%%@o@;;=-@+=%@--@@%@=;=.%=-2;+o;%%@o@;;=-@+=%@--@@%@=;=.%=-2;+o",
"@@=;%%=@@==%;=@%=@@=@=;%%=@@==@=@@=;%%=@@==%;=@%=@@=@=;%%=@@==@=",
"oo;2;=%.@=%@-=@==@%=@=-@;;+.@%=;oo;2;=%.@=%@-=@==@%=@=-@;;+.@%=;",
";%%@.+;;=;@o@@%;=@%=@=-@ @=;2;oo;%%@.+;;=;@o@@%;=@%=@=-@ @=;2;oo",
"@+=,===o@-=@=%@=,=%@o@;;@=@@==@=@+=,===o@-=@=%@=,=%@o@;;@=@@==@=",
"=@==@%-%@-=@=%@==@=-%=-@==@o==%-=@==@%-%@-=@=%@==@=-%=-@==@o==%-",
"-@%=+@-=@-=@=%@==@=;===@o=%=,-@@-@%=+@-=@-=@=%@==@=;===@o=%=,-@@",
"%@=;===+@-=@=%@=;%==+%;=o=%=;-@@%@=;===+@-=@=%@=;%==+%;=o=%=;-@@",
"%@=;===+@-=@=%@=;%==+%;=--@o@=%;%@=;===+@-=@=%@=;%==+%;=--@o@=%;",
"-@%=+@-=@-=@=%@==@=;===@+=%%;-@@-@%=+@-=@-=@=%@==@=;===@+=%%;-@@",
"=@==@%-%@-=@=%@==@=-%=-@.@=;2;oo=@==@%-%@-=@=%@==@=-%=-@.@=;2;oo",
"@+=,===o@-=@=%@=,=%@o@;;;;+.@%=,@+=,===o@-=@=%@=,=%@o@;;;;+.@%=,",
"=@==@@=@=-@+=%@-=@@=@=-@o%%=,-++=@==@@=@=-@+=%@-=@@=@=-@o%%=,-++",
"-%==o@==%-@@==@==@@=@=-@=-@@-=%=-%==o@==%-@@==@==@@=@=-@=-@@-=%=",
"@@-,=%=o@=%@==@==@@=@=-@=-@@==%-@@-,=%=o@=%@==@==@@=@=-@=-@@==%-",
"@@-;=%=o@=%@==@==@@=@=-@+=@@;=@@@@-;=%=o@=%@==@==@@=@=-@+=@@;=@@",
";%=@o@--@=%@==@==@@=@=-@+=@@;=@@;%=@o@--@=%@==@==@@=@=-@+=@@;=@@",
"@@-;%%=+@=%@==@==@@=@=-@=-@@==%-@@-;%%=+@=%@==@==@@=@=-@=-@@==%-",
"oo;2;=@.%-@@==@==@@=@=-@=-@@-=%=oo;2;=@.%-@@==@==@@=@=-@=-@@-=%=",
",=%@.+;;=-@+=%@-=@@=@=-@o%%=,-++,=%@.+;;=-@+=%@-=@@=@=-@o%%=,-++",
"%@=;%==@o===;=o@;@%%+@-=%=@@==@=%@=;%==@o===;=o@;@%%+@-=@=@@==@=",
"@+=;===o=;=@%@@--@%=+@-==-@o==%;@+=;===o=;=@%@@--@%=+@-===@o==%-",
";@%%o@-==;%+@@@;=@==@%-%o=%=,-@@;@%%o@-==;%+@@@;=@==@%-%o=%=,-@@",
"-@%=+@-=@-=%=%+==@==@%=@+=%%;-@@-@%=+@-=@-=%=%+==@==@%=@o=%=;-@@",
"oo-2;==.@-=%=%+==@==@%=@;;+.@%=;oo-2;==.@-=%=%+==@==@%=@--@o@=%;",
"=@==@%-%=;%+@@@;=@==@%-%@=@@;=@%=@==@%-%=;%+@@@;=@==@%-%+=%%;-@@",
",%@@o@;;=;=@%@@--@%=+@-=.%=-2;+o,%@@o@;;=;=@%@@--@%=+@-=.@=;2;oo",
"oo-2;=% o===;=o@;@%%+@-=;;+ @%=,oo-2;=% o===;=o@;@%%+@-=;;+.@%=,",
"=@==@@=%=;@o@@%;=@%=@=-@@=@%;=@%=@==@@=%=;@o@@%;=@%=@=-@@=@%;=@%",
"-@==o@-=@=%@-=@==@%=@=-@o=%=,-@@-@==o@-=@=%@-=@==@%=@=-@o=%=,-@@",
"@+-,===o@==%;=@%=@@=@=;%=-@o==%;@+-,===o@==%;=@%=@@=@=;%=-@o==%;",
"@+-;=%=+=-@+=%@--@@%@=;===@+==@-@+-;=%=+=-@+=%@--@@%@=;===@+==@-",
";%%@o@;;=-@+=%@--@@%@=;=.%=-2;+o;%%@o@;;=-@+=%@--@@%@=;=.%=-2;+o",
"@@=;%%=@@==%;=@%=@@=@=;%%=@@==@=@@=;%%=@@==%;=@%=@@=@=;%%=@@==@=",
"oo;2;=%.@=%@-=@==@%=@=-@;;+.@%=;oo;2;=%.@=%@-=@==@%=@=-@;;+.@%=;",
";%%@.+;;=;@o@@%;=@%=@=-@ @=;2;oo;%%@.+;;=;@o@@%;=@%=@=-@ @=;2;oo",
"@+=,===o@-=@=%@=,=%@o@;;@=@@==@=@+=,===o@-=@=%@=,=%@o@;;@=@@==@=",
"=@==@%-%@-=@=%@==@=-%=-@==@o==%-=@==@%-%@-=@=%@==@=-%=-@==@o==%-",
"-@%=+@-=@-=@=%@==@=;===@o=%=,-@@-@%=+@-=@-=@=%@==@=;===@o=%=,-@@",
"%@=;===+@-=@=%@=;%==+%;=o=%=;-@@%@=;===+@-=@=%@=;%==+%;=o=%=;-@@",
"%@=;===+@-=@=%@=;%==+%;=--@o@=%;%@=;===+@-=@=%@=;%==+%;=--@o@=%;",
"-@%=+@-=@-=@=%@==@=;===@+=%%;-@@-@%=+@-=@-=@=%@==@=;===@+=%%;-@@",
"=@==@%-%@-=@=%@==@=-%=-@.@=;2;oo=@==@%-%@-=@=%@==@=-%=-@.@=;2;oo",
"@+=,===o@-=@=%@=,=%@o@;;;;+.@%=,@+=,===o@-=@=%@=,=%@o@;;;;+.@%=,",
"-@=%o@-==-@+=%@-=@@=@=-@o%%=,-++=@==@@=@=-@+=%@-=@@=@=-@o%==2;+@",
"@@=;%%=@%-@@==@==@@=@=-@=-@@-=%=-%==o@==%-@@==@==@@=@=-@%=@@==@=",
"@+-;=%=+@=%@==@==@@=@=-@=-@@==%-@@-,=%=o@=%@==@==@@=@=-@==@+==@-",
"=@==@@=%@=%@==@==@@=@=-@+=@@;=@@@@-;=%=o@=%@==@==@@=@=-@@=%%;-@@",
"=@==@@=%@=%@==@==@@=@=-@+=@@;=@@;%=@o@--@=%@==@==@@=@=-@@=%%;-@@",
"@+-;=%=+@=%@==@==@@=@=-@=-@@==%-@@-;%%=+@=%@==@==@@=@=-@==@+==@-",
"@@=;%%=@%-@@==@==@@=@=-@=-@@-=%=oo;2;=@.%-@@==@==@@=@=-@%=@@==@=",
"-@=%o@-==-@+=%@-=@@=@=-@o%%=,-++,=%@.+;;=-@+=%@-=@@=@=-@o%==2;+@"
};
