/* XPM */
static char * brick_wall_xpm[] = {
"64 64 137 2",
"  	c None",
". 	c #5A3B27",
"+ 	c #868579",
"@ 	c #88877B",
"# 	c #5E4532",
"$ 	c #624937",
"% 	c #675544",
"& 	c #918F88",
"* 	c #929088",
"= 	c #94928B",
"- 	c #99978F",
"; 	c #665444",
"> 	c #6D695F",
", 	c #6D685F",
"' 	c #5B4231",
") 	c #6C685E",
"! 	c #6C675E",
"~ 	c #6B675D",
"{ 	c #6C665E",
"] 	c #6B665D",
"^ 	c #6B655D",
"/ 	c #6A655C",
"( 	c #6A665C",
"_ 	c #593D2A",
": 	c #6A645C",
"< 	c #53321E",
"[ 	c #69645B",
"} 	c #69635B",
"| 	c #68635A",
"1 	c #676259",
"2 	c #68625A",
"3 	c #676159",
"4 	c #4F2913",
"5 	c #5C5247",
"6 	c #4F311E",
"7 	c #5C5147",
"8 	c #5D5247",
"9 	c #5D5248",
"0 	c #4F3625",
"a 	c #584132",
"b 	c #543624",
"c 	c #5E5146",
"d 	c #5D4D41",
"e 	c #5F5349",
"f 	c #563D2C",
"g 	c #563B2A",
"h 	c #553726",
"i 	c #553827",
"j 	c #583F30",
"k 	c #76726C",
"l 	c #76726B",
"m 	c #757169",
"n 	c #757068",
"o 	c #747068",
"p 	c #746F67",
"q 	c #736E66",
"r 	c #75716A",
"s 	c #736E67",
"t 	c #6C675F",
"u 	c #736F68",
"v 	c #6D6861",
"w 	c #74706A",
"x 	c #75716B",
"y 	c #747069",
"z 	c #746F69",
"A 	c #533320",
"B 	c #533321",
"C 	c #726E67",
"D 	c #5B483B",
"E 	c #573C2D",
"F 	c #512D19",
"G 	c #512E19",
"H 	c #512E1A",
"I 	c #52301C",
"J 	c #543422",
"K 	c #5B4435",
"L 	c #583E2E",
"M 	c #52311E",
"N 	c #533220",
"O 	c #53321F",
"P 	c #52301D",
"Q 	c #52301E",
"R 	c #5B4538",
"S 	c #543321",
"T 	c #563929",
"U 	c #5B473A",
"V 	c #69645C",
"W 	c #675F56",
"X 	c #645850",
"Y 	c #63574D",
"Z 	c #63564C",
"` 	c #62564B",
" .	c #62554B",
"..	c #62554A",
"+.	c #625449",
"@.	c #573D2E",
"#.	c #5D4C41",
"$.	c #665F58",
"%.	c #563C2C",
"&.	c #615851",
"*.	c #573D2D",
"=.	c #594032",
"-.	c #5E4F45",
";.	c #594234",
">.	c #655C55",
",.	c #594235",
"'.	c #655D56",
").	c #5E4F44",
"!.	c #5A4538",
"~.	c #543523",
"{.	c #512F1B",
"].	c #5C4B3E",
"^.	c #5B493C",
"/.	c #5D5044",
"(.	c #5D4F43",
"_.	c #5D4E43",
":.	c #5D4E42",
"<.	c #5D4D42",
"[.	c #522F1B",
"}.	c #553927",
"|.	c #563A28",
"1.	c #573E2E",
"2.	c #5A4638",
"3.	c #60564E",
"4.	c #60554C",
"5.	c #60554D",
"6.	c #60564D",
"7.	c #5C4D41",
"8.	c #60564F",
"9.	c #61574F",
"0.	c #5A4537",
"a.	c #56321C",
"b.	c #767469",
"c.	c #5E3B25",
"d.	c #655444",
"e.	c #86847B",
"f.	c #666057",
". . . . . . . . . . . . . . . .   . . . . . . . . . . . . . . . . . . . . . . . . . . . . . . .   . . . . . . . . . . . . . . . ",
"+ + + + + + + + + + + + + + @ + # + + + + + + + + + + + + + + + + + + + + + + + + + + + + + @ + # + + + + + + + + + + + + + + + ",
"+ + + + + + + + + + + + + + + + $ + + + + + + + + + + + + + + + + + + + + + + + + + + + + + + + $ + + + + + + + + + + + + + + + ",
"+ + + + + + + + + + + + + + + + % + + + + + + + + + + + + + + + + + + + + + + + + + + + + + + + % + + + + + + + + + + + + + + + ",
"& & & & & & & & & & & * = - - - ; = - - - = = = = = = = = = = = & & & & & & & & & & & * = - - - ; = - - - = = = = = = = = = = = ",
"> > > , , , , , , , > > > > > , ' , , , ) , , , , , ! ) ) ) ) ) > > > , , , , , , , > > > > > , ' , , , ) , , , , , ! ) ) ) ) ) ",
", , , , , , , , , , , , , > , , ' , , ) ) ) , , , ) ! ! ! ! ! ! , , , , , , , , , , , , , > , , ' , , ) ) ) , , , ) ! ! ! ! ! ! ",
", , , , , , , , ) ) ) ) ) ) ! ! ' , ) ) ! ! ) ) ) ! ! ! ! ! ! ! , , , , , , , , ) ) ) ) ) ) ! ! ' , ) ) ! ! ) ) ) ! ! ! ! ! ! ! ",
", ) ) ) ) ) ) ) ) ) ) ! ! ! ! ! ' ! ! ! ! ! ~ ~ ! ! ! ! ! { ] ] , ) ) ) ) ) ) ) ) ) ) ! ! ! ! ! ' ! ! ! ! ! ~ ~ ! ! ! ! ! { ] ] ",
"! ! ! ! ! ! ! ! ! ! ! ~ ~ ~ ~ ~ ' ] ] ] ] ] ] ] ] ] ] ] ] ] ] ] ! ! ! ! ! ! ! ! ! ! ! ~ ~ ~ ~ ~ ' ] ] ] ] ] ] ] ] ] ] ] ] ] ] ] ",
"~ ] ] ] ] ] ] ] ] ] ] ] ] ] ] ] ' ] ] ] ] ] ^ ^ / / / / ( ( ( ( ~ ] ] ] ] ] ] ] ] ] ] ] ] ] ] ] ' ] ] ] ] ] ^ ^ / / / / ( ( ( ( ",
"/ / / / / / / / / / / / ^ ^ ^ ^ _ ^ ^ / : : : : : : : : / / / / / / / / / / / / / / / / ^ ^ ^ ^ _ ^ ^ / : : : : : : : : / / / / ",
"/ / / / / / / / / / / / / / : / < [ [ [ [ [ [ [ [ [ [ [ [ [ [ [ / / / / / / / / / / / / / / : / < [ [ [ [ [ [ [ [ [ [ [ [ [ [ [ ",
"[ [ : [ [ [ [ [ [ [ [ [ [ [ [ [ < } } } } } } [ [ [ [ [ [ [ [ [ [ [ : [ [ [ [ [ [ [ [ [ [ [ [ [ < } } } } } } [ [ [ [ [ [ [ [ [ ",
"} } } } } } } } } } } } } } | | < | | | | | | | | | | | | | } } } } } } } } } } } } } } } } | | < | | | | | | | | | | | | | } } ",
"1 1 1 1 1 1 1 2 1 2 2 2 | | | 2 < 2 2 2 2 2 2 2 2 2 | | 2 | | | 1 1 1 1 1 1 1 2 1 2 2 2 | | | 2 < 2 2 2 2 2 2 2 2 2 | | 2 | | | ",
"3 3 3 3 3 3 3 3 3 3 3 3 3 3 3 3 < 3 3 3 3 3 3 3 3 3 3 3 3 3 3 3 3 3 3 3 3 3 3 3 3 3 3 3 3 3 3 3 < 3 3 3 3 3 3 3 3 3 3 3 3 3 3 3 ",
"3 3 3 3 3 3 3 3 3 3 3 3 3 3 3 3 4 3 3 3 3 3 3 3 3 3 3 3 3 3 3 3 3 3 3 3 3 3 3 3 3 3 3 3 3 3 3 3 4 3 3 3 3 3 3 3 3 3 3 3 3 3 3 3 ",
"4 4 4 4 4 4 4 4 4 4 4 4 4 4 4 4 5 4 4 4 4 4 4 4 4 4 4 4 4 4 4 4 4 4 4 4 4 4 4 4 4 4 4 4 4 4 4 4 5 4 4 4 4 4 4 4 4 4 4 4 4 4 4 4 ",
"5 5 5 5 5 5 5 5 5 5 5 5 5 5 5 5 5 5 5 5 5 5 5 6 7 7 5 8 8 8 8 9 5 5 5 5 5 5 5 5 5 5 5 5 5 5 5 5 5 5 5 5 5 5 5 6 7 7 5 8 8 8 8 9 ",
"5 5 5 5 5 5 5 5 5 5 5 5 5 5 5 5 5 5 5 5 5 5 5 6 5 5 8 8 8 8 8 9 5 5 5 5 5 5 5 5 5 5 5 5 5 5 5 5 5 5 5 5 5 5 5 6 5 5 8 8 8 8 8 9 ",
"5 5 5 5 5 5 5 5 5 5 5 5 5 5 5 5 5 5 5 5 5 5 5 0 5 5 8 8 8 8 8 9 5 5 5 5 5 5 5 5 5 5 5 5 5 5 5 5 5 5 5 5 5 5 5 0 5 5 8 8 8 8 8 9 ",
"5 5 5 5 5 5 5 5 5 5 5 5 5 5 5 5 5 5 5 5 5 5 5 0 5 5 5 8 8 8 8 9 5 5 5 5 5 5 5 5 5 5 5 5 5 5 5 5 5 5 5 5 5 5 5 0 5 5 5 8 8 8 8 9 ",
"5 5 5 5 5 5 5 5 5 5 5 5 5 5 5 5 5 5 5 5 5 5 5 0 5 5 5 8 8 8 8 9 5 5 5 5 5 5 5 5 5 5 5 5 5 5 5 5 5 5 5 5 5 5 5 0 5 5 5 8 8 8 8 9 ",
"5 5 5 5 5 5 5 5 5 5 5 5 5 5 5 5 5 5 5 5 5 5 5 0 7 7 5 8 8 8 8 8 5 5 5 5 5 5 5 5 5 5 5 5 5 5 5 5 5 5 5 5 5 5 5 0 7 7 5 8 8 8 8 8 ",
"3 3 3 3 3 3 3 3 3 3 3 3 3 3 3 3 3 3 3 3 3 3 3 a 3 3 3 3 3 3 3 3 3 3 3 3 3 3 3 3 3 3 3 3 3 3 3 3 3 3 3 3 3 3 3 a 3 3 3 3 3 3 3 3 ",
"3 3 3 3 3 3 3 3 3 3 3 3 3 3 3 3 3 3 3 3 3 3 3 b 3 3 3 3 3 3 3 3 3 3 3 3 3 3 3 3 3 3 3 3 3 3 3 3 3 3 3 3 3 3 3 b 3 3 3 3 3 3 3 3 ",
"c c c c c d d d c c c e e e e e e e e a a f g h i j e e e e e e c c c c c d d d c c c e e e e e e e e a a f g h i j e e e e e e ",
", , , , , , d d k k k k k k k l l m n n o p p p p p q q q q q q q r l l s q d t t t t t t t t t t t t t t t t t t t t t t t t t ",
"3 3 3 3 3 3 d u v v v v v v v v v v v v v v v v v v v v v v v v v v v v v v d 3 3 3 3 3 3 3 3 3 3 3 3 3 3 3 3 3 3 3 3 3 3 3 3 3 ",
"3 3 3 3 3 3 d w v v v v v v v v v v v v v v v v v v v v v v v v v v v v v v d 3 3 3 3 3 3 3 3 3 3 3 3 3 3 3 3 3 3 3 3 3 3 3 3 3 ",
"3 3 3 3 3 3 d x v v v v v v v v v v v v v v v v v v v v v v v v v v v v v v d 3 3 3 3 3 3 3 3 3 3 3 3 3 3 3 3 3 3 3 3 3 3 3 3 3 ",
"3 3 3 3 3 3 d x v v v v v v v v v v v v v v v v v v v v v v v v v v v v v v d 3 3 3 3 3 3 3 3 3 3 3 3 3 3 3 3 3 3 3 3 3 3 3 3 3 ",
"3 3 3 3 3 3 d y v v v v v v v v v v v v v v v v v v v v v v v v v v v v v v d 3 3 3 3 3 3 3 3 3 3 3 3 3 3 3 3 3 3 3 3 3 3 3 3 3 ",
"3 3 3 3 3 3 a z v v v v v v v v v v v v v v v v v v v v v v v v v v v v v v A 3 3 3 3 3 3 3 3 3 3 3 3 3 3 3 3 3 3 3 3 3 3 3 3 3 ",
"3 3 3 3 3 3 B C v v v v v v v v v v v v v v v v v v v v v v v v v v v v v v A 3 3 3 3 3 3 3 3 3 3 3 3 3 3 3 3 3 3 3 3 3 3 3 3 3 ",
"D D D E E b F G H I J h h K K K K K K K K K L M A A A A N O P P Q M F F G F R O B B B B B B S h T E E E E E E E E E U e e e e e ",
"V V V V V V W X Y Y Y Y Y Z Z Z `  . . . ...+.@.#.#.#.#.#.#.#.#.#.#.#.#.#.#.#.#.#.#.#.#.#.#.#.#.#.#.#.#.#.#.#.E t t t t t t t t ",
"$.$.$.$.$.$.$.$.$.$.$.$.$.$.$.$.$.$.$.$.$.$.$.%.#.#.&.&.&.&.&.&.&.&.&.&.&.&.&.&.&.&.&.&.&.&.&.&.&.&.&.&.&.#.#.E $.$.$.$.$.$.$.$.",
"$.$.$.$.$.$.$.$.$.$.$.$.$.$.$.$.$.$.$.$.$.$.$.*.&.&.&.&.&.&.&.&.&.&.&.&.&.&.&.&.&.&.&.&.&.&.&.&.&.&.&.&.&.&.#.=.$.$.$.$.$.$.$.$.",
"$.$.$.$.$.$.$.$.$.$.$.$.$.$.$.$.$.$.$.$.$.$.$.-.&.&.&.&.&.&.&.&.&.&.&.&.&.&.&.&.&.&.&.&.&.&.&.&.&.&.&.&.&.&.&.;.>.$.$.$.$.$.$.$.",
"$.$.$.$.$.$.$.$.$.$.$.$.$.$.$.$.$.$.$.$.$.$.$.-.&.&.&.&.&.&.&.&.&.&.&.&.&.&.&.&.&.&.&.&.&.&.&.&.&.&.&.&.&.&.&.,.'.$.$.$.$.$.$.$.",
"$.$.$.$.$.$.$.$.$.$.$.$.$.$.$.$.$.$.$.$.$.$.$.).&.&.&.&.&.&.&.&.&.&.&.&.&.&.&.&.&.&.&.&.&.&.&.&.&.&.&.&.&.&.&.!.$.$.$.$.$.$.$.$.",
"$.$.$.$.$.$.$.$.$.$.$.$.$.$.$.$.$.$.$.$.$.$.$.~.&.&.&.&.&.&.&.&.&.&.&.&.&.&.&.&.&.&.&.&.&.&.&.&.&.&.&.&.&.&.&.~.$.$.$.$.$.$.$.$.",
"$.$.$.'.$.$.$.$.$.$.$.$.$.$.$.$.$.$.$.$.$.$.$.O &.&.&.&.&.&.&.&.&.&.&.&.&.&.&.&.&.&.&.&.&.&.&.&.&.&.&.&.&.&.&.{.$.$.$.$.$.$.$.$.",
"e e e ].].^.].]././././.(._.:.:.:.:.:.<.~.~.~.[.i i }.|.1.2.].].].].].].].3.4.5.6.*.*.*.*.*.*.*.*.1.h h h P H H ~.~.7.7.7.7.7.7.",
"t t t t t t ].t t t t t t t t t t t t t t t t t t t t t t t t t t t t t t ].8.9.*.t t t t t t t t t t t t t t t t t t t t t t t ",
"$.$.$.$.$.$.].$.$.$.$.$.$.$.$.$.$.$.$.$.$.$.$.$.$.$.$.$.$.$.$.$.$.$.$.$.$.$.*.*.$.$.$.$.$.$.$.$.$.$.$.$.$.$.$.$.$.$.$.$.$.$.$.$.",
"$.$.$.$.$.$.].$.$.$.$.$.$.$.$.$.$.$.$.$.$.$.$.$.$.$.$.$.$.$.$.$.$.$.$.$.$.$.*.$.$.$.$.$.$.$.$.$.$.$.$.$.$.$.$.$.$.$.$.$.$.$.$.$.",
"$.$.$.$.$.$.c $.$.$.$.$.$.$.$.$.$.$.$.$.$.$.$.$.$.$.$.$.$.$.$.$.$.$.$.$.$.$.2.$.$.$.$.$.$.$.$.$.$.$.$.$.$.$.$.$.$.$.$.$.$.$.$.$.",
"$.$.$.$.$.$.e $.$.$.$.$.$.$.$.$.$.$.$.$.$.$.$.$.$.$.$.$.$.$.$.$.$.$.$.$.$.$.0.$.$.$.$.$.$.$.$.$.$.$.$.$.$.$.$.$.$.$.$.$.$.$.$.$.",
"$.$.$.$.$.$.a $.$.$.$.$.$.$.$.$.$.$.$.$.$.$.$.$.$.$.$.$.$.$.$.$.$.$.$.$.$.$.0.$.$.$.$.$.$.$.$.$.$.$.$.$.$.$.$.$.$.$.$.$.$.$.$.$.",
"$.$.$.$.$.$.*.$.$.$.$.$.$.$.$.$.$.$.$.$.$.$.$.$.$.$.$.$.$.$.$.$.$.$.$.$.$.$.*.$.$.$.$.$.$.$.$.$.$.$.$.$.$.$.$.$.$.$.$.$.$.$.$.$.",
"$.$.$.$.$.$.1.$.$.$.$.$.$.$.$.$.$.$.$.$.$.$.$.$.$.$.$.$.$.$.$.$.$.$.$.$.$.$.1.$.$.$.$.$.$.$.$.$.$.$.$.$.$.$.$.$.$.$.$.$.$.$.$.$.",
"a.a.a.a.a.a.a.a.a.a.a.a.a.a.a.a.$.a.a.a.a.a.a.a.a.a.a.a.a.a.a.a.a.a.a.a.a.a.a.a.a.a.a.a.a.a.a.a.$.a.a.a.a.a.a.a.a.a.a.a.a.a.a.a.",
"b.b.b.b.b.b.b.b.b.b.b.b.b.b.b.b.c.b.b.b.b.b.b.b.b.b.b.b.b.b.b.b.b.b.b.b.b.b.b.b.b.b.b.b.b.b.b.b.c.b.b.b.b.b.b.b.b.b.b.b.b.b.b.b.",
"b.b.b.b.b.b.b.b.b.b.b.b.b.b.b.b.d.b.b.b.b.b.b.b.b.b.b.b.b.b.b.b.b.b.b.b.b.b.b.b.b.b.b.b.b.b.b.b.d.b.b.b.b.b.b.b.b.b.b.b.b.b.b.b.",
"b.b.b.b.b.b.b.b.b.b.b.b.b.b.b.b.d.b.b.b.b.b.b.b.b.b.b.b.b.b.b.b.b.b.b.b.b.b.b.b.b.b.b.b.b.b.b.b.d.b.b.b.b.b.b.b.b.b.b.b.b.b.b.b.",
"b.b.b.b.b.b.b.b.b.b.b.b.b.b.b.b.d.b.b.b.b.b.b.b.b.b.b.b.b.b.b.b.b.b.b.b.b.b.b.b.b.b.b.b.b.b.b.b.d.b.b.b.b.b.b.b.b.b.b.b.b.b.b.b.",
"e.e.e.e.e.e.e.e.e.e.e.e.e.e.e.e.d.e.e.e.e.e.e.e.e.e.e.e.e.e.e.e.e.e.e.e.e.e.e.e.e.e.e.e.e.e.e.e.d.e.e.e.e.e.e.e.e.e.e.e.e.e.e.e.",
"f.f.f.f.f.f.f.f.f.f.f.f.f.f.f.f.d.f.f.f.f.f.f.f.f.f.f.f.f.f.f.f.f.f.f.f.f.f.f.f.f.f.f.f.f.f.f.f.d.f.f.f.f.f.f.f.f.f.f.f.f.f.f.f.",
"f.f.f.f.f.f.f.f.f.f.f.f.f.f.f.f.d.f.f.f.f.f.f.f.f.f.f.f.f.f.f.f.f.f.f.f.f.f.f.f.f.f.f.f.f.f.f.f.d.f.f.f.f.f.f.f.f.f.f.f.f.f.f.f.",
"f.f.f.f.f.f.f.f.f.f.f.f.f.f.f.f.4 f.f.f.f.f.f.f.f.f.f.f.f.f.f.f.f.f.f.f.f.f.f.f.f.f.f.f.f.f.f.f.4 f.f.f.f.f.f.f.f.f.f.f.f.f.f.f.",
"4 4 4 4 4 4 4 4 4 4 4 4 4 4 4 4 4 4 4 4 4 4 4 4 4 4 4 4 4 4 4 4 4 4 4 4 4 4 4 4 4 4 4 4 4 4 4 4 4 4 4 4 4 4 4 4 4 4 4 4 4 4 4 4 "};
