/* XPM */
static char * fire_column_medium_10_xpm[] = {
"45 90 5 1",
" 	c None",
".	c #EB4200",
"+	c #FF8C00",
"@	c #FFD400",
"#	c #523008",
"                                             ",
"                                             ",
"                                             ",
"                                             ",
"                                             ",
"                                             ",
"                                             ",
"                                             ",
"                                             ",
"                                             ",
"                                             ",
"                                             ",
"                                             ",
"                                             ",
"                                             ",
"                                             ",
"                                             ",
"                                             ",
"                                             ",
"                                             ",
"                                             ",
"                                             ",
"                                             ",
"                                             ",
"                                             ",
"                                             ",
"                         ..                  ",
"                          ..                 ",
"                           .                 ",
"                        ..                   ",
"                  ..   ....                  ",
"                 ...    ....                 ",
"                ...       ..                 ",
"                ...                          ",
"                ..                           ",
"                         ..                  ",
"                        ....                 ",
"                       ....                  ",
"                       ...                   ",
"                 ...    .  .                 ",
"                .....     ...                ",
"               .....    .....                ",
"               .....  ......                 ",
"               ....  .....                   ",
"               ....  ...  +                  ",
"                ...  ..  +++                 ",
"                 .      ++++.                ",
"                        +++..                ",
"                         ++..                ",
"                     ++   ++..               ",
"                    +++.  +...               ",
"                   ++++.   ..                ",
"                   .++..  ...                ",
"                   ........+..               ",
"                   +......+++.               ",
"                  +++....++++..              ",
"                 ++++...+++++..              ",
"                 +++.....+++...              ",
"                 +.............              ",
"                 ......++......              ",
"                  +...++++....               ",
"                 +++.+++++...                ",
"                 +++.+++++..                 ",
"                +++..++++..                  ",
"                ++..++++....                 ",
"                 ...+++..+..                 ",
"                 ...+++.+++.                 ",
"                 ...+++.++++                 ",
"                  +..+++++++                 ",
"                  ++.+@++++                  ",
"                   +++@++++                  ",
"                   +++@@++                   ",
"                   +++@@++                   ",
"                   ++@@@+                    ",
"                    +@@+                     ",
"                    @@@                      ",
"                     @                       ",
"                                             ",
"                                             ",
"                                             ",
"                 ###########                 ",
"                #############                ",
"                 ###########                 ",
"                  #########                  ",
"                  #########                  ",
"                  #########                  ",
"                  #########                  ",
"                  #########                  ",
"                  #########                  ",
"                  #########                  "};
