/* XPM */
static char * fire_column_medium_11_xpm[] = {
"45 90 3 1",
" 	c None",
".	c #EB4200",
"+	c #523008",
"                                             ",
"                                             ",
"                                             ",
"                                             ",
"                                             ",
"                                             ",
"                                             ",
"                                             ",
"                                             ",
"                                             ",
"                                             ",
"                                             ",
"                                             ",
"                                             ",
"                                             ",
"                                             ",
"                                             ",
"                                             ",
"                                             ",
"                                             ",
"                                             ",
"                                             ",
"                                             ",
"                                             ",
"                         .                   ",
"                         ...                 ",
"                          ..                 ",
"                                             ",
"                  ..    ..                   ",
"                ...    ....                  ",
"                ..       ..                  ",
"                .                            ",
"                                             ",
"                                             ",
"                        ..                   ",
"                 ..    ...                   ",
"                ....   .                     ",
"                ...        ..                ",
"               ....       ..                 ",
"               ...   ..                      ",
"                .     ..                     ",
"                         ..                  ",
"                         ...                 ",
"                        ....                 ",
"                        ...                  ",
"                        ..                   ",
"                    ..                       ",
"                   ....                      ",
"                   ....                      ",
"                   ...     .                 ",
"                   ..     ..                 ",
"                         ....                ",
"                  .     .....                ",
"                 ...    ....                 ",
"                ....    ....                 ",
"                ....    ...                  ",
"                ...                          ",
"                 ..                          ",
"                        ...                  ",
"                  .    ....                  ",
"                 ...   ...                   ",
"                 .... ....                   ",
"                 .... ...                    ",
"                  ...      ..                ",
"                  ..      ...                ",
"                         ...                 ",
"                        ...                  ",
"                   ..   ..                   ",
"                   ...                       ",
"                   ....                      ",
"                   ....                      ",
"                    ...                      ",
"                     ..                      ",
"                                             ",
"                                             ",
"                                             ",
"                                             ",
"                                             ",
"                                             ",
"                                             ",
"                 +++++++++++                 ",
"                +++++++++++++                ",
"                  ++++++++++                 ",
"                  +++++++++                  ",
"                  +++++++++                  ",
"                  +++++++++                  ",
"                  +++++++++                  ",
"                  +++++++++                  ",
"                  +++++++++                  ",
"                  +++++++++                  "};
