/* XPM */
static char * fire_column_medium_2_xpm[] = {
"45 90 5 1",
" 	c None",
".	c #FF8C00",
"+	c #FFD400",
"@	c #F0EFE8",
"#	c #523008",
"                                             ",
"                                             ",
"                                             ",
"                                             ",
"                                             ",
"                                             ",
"                                             ",
"                                             ",
"                                             ",
"                                             ",
"                                             ",
"                                             ",
"                                             ",
"                                             ",
"                                             ",
"                                             ",
"                                             ",
"                                             ",
"                                             ",
"                                             ",
"                                             ",
"                                             ",
"                                             ",
"                                             ",
"                                             ",
"                                             ",
"                                             ",
"                                             ",
"                                             ",
"                                             ",
"                                             ",
"                                             ",
"                                             ",
"                                             ",
"                                             ",
"                                             ",
"                                             ",
"                                             ",
"                                             ",
"                                             ",
"                                             ",
"                                             ",
"                                             ",
"                                             ",
"                                             ",
"                                             ",
"                                             ",
"                                             ",
"                                             ",
"                                             ",
"                                             ",
"                                             ",
"                                             ",
"                                             ",
"                                             ",
"                                             ",
"                                             ",
"                                             ",
"                                             ",
"                                             ",
"                                             ",
"                        .                    ",
"                       ...                   ",
"                       ...                   ",
"                      ....                   ",
"                     ..+...                  ",
"                     .++.+..                 ",
"                  .. .+++++.                 ",
"                 ......+++.                  ",
"                 ..++...+.                   ",
"                  .+++.+++.                  ",
"                   .+++++++.                 ",
"                   ..++@@+++                 ",
"                 +++.+@@@@++                 ",
"                ++++++@@@@+.                 ",
"                .++++++@@@+.                 ",
"                 .++@+@@@+.                  ",
"                 ..@@@@@+++.                 ",
"                  .++@@@+++.                 ",
"                   .++@@@+.                  ",
"                 ###########                 ",
"                #############                ",
"                  ##########                 ",
"                  #########                  ",
"                  #########                  ",
"                  #########                  ",
"                  #########                  ",
"                  #########                  ",
"                  #########                  ",
"                  #########                  "};
