/* XPM */
static char * fire_column_medium_1_xpm[] = {
"45 90 10 1",
" 	c None",
".	c #FFD400",
"+	c #FF8C00",
"@	c #F0EFE8",
"#	c #D1AB03",
"$	c #D9D6CF",
"%	c #E0DED7",
"&	c #DAD8D1",
"*	c #EE8301",
"=	c #523008",
"                                             ",
"                                             ",
"                                             ",
"                                             ",
"                                             ",
"                                             ",
"                                             ",
"                                             ",
"                                             ",
"                                             ",
"                                             ",
"                                             ",
"                                             ",
"                                             ",
"                                             ",
"                                             ",
"                                             ",
"                                             ",
"                                             ",
"                                             ",
"                                             ",
"                                             ",
"                                             ",
"                                             ",
"                                             ",
"                                             ",
"                                             ",
"                                             ",
"                                             ",
"                                             ",
"                                             ",
"                                             ",
"                                             ",
"                                             ",
"                                             ",
"                                             ",
"                                             ",
"                                             ",
"                                             ",
"                                             ",
"                                             ",
"                                             ",
"                                             ",
"                                             ",
"                                             ",
"                                             ",
"                                             ",
"                                             ",
"                                             ",
"                                             ",
"                                             ",
"                                             ",
"                                             ",
"                                             ",
"                                             ",
"                                             ",
"                                             ",
"                                             ",
"                                             ",
"                                             ",
"                                             ",
"                                             ",
"                                             ",
"                                             ",
"                                             ",
"                                             ",
"                                             ",
"                                             ",
"                                             ",
"                                             ",
"                                             ",
"                   .+                        ",
"                   ..+                       ",
"                   ..+  .+                   ",
"                    ..+...                   ",
"                  .. ..@.+                   ",
"                 .....@@@..                  ",
"                 ...@@@@...+                 ",
"                  +@@@@@..+                  ",
"                   #$%&..*                   ",
"                 ===========                 ",
"                =============                ",
"                 ===========                 ",
"                  =========                  ",
"                  =========                  ",
"                  =========                  ",
"                  =========                  ",
"                  =========                  ",
"                  =========                  ",
"                  =========                  "};
