/* XPM */
static char * fire_column_medium_6_xpm[] = {
"45 90 6 1",
" 	c None",
".	c #EB4200",
"+	c #FF8C00",
"@	c #FFD400",
"#	c #F0EFE8",
"$	c #523008",
"                                             ",
"                                             ",
"                                             ",
"                                             ",
"                                             ",
"                                             ",
"                                             ",
"                                             ",
"                                             ",
"                                             ",
"                                             ",
"                                             ",
"                                             ",
"                                             ",
"                                             ",
"                                             ",
"                                             ",
"                                             ",
"                                             ",
"                                             ",
"                                             ",
"                                             ",
"                                             ",
"                                             ",
"                                             ",
"                                             ",
"                                             ",
"                                             ",
"                                             ",
"                                             ",
"                                             ",
"                         .                   ",
"                          ..                 ",
"                                             ",
"                    ...                      ",
"                   ...                       ",
"                  ...                        ",
"                          ...                ",
"                         .....               ",
"                         ......              ",
"                          .....              ",
"                   ...     ....              ",
"                  .....    ....              ",
"                 ...+...    ..               ",
"                 ..++....                    ",
"                ...+......                   ",
"                .....++.....                 ",
"                ....++++.....                ",
"                 ..++++++...+                ",
"                  .   ++++.+++               ",
"                      ++++++++               ",
"                     ++++++++++              ",
"                     ++++++++++              ",
"                      ++@+++++++             ",
"                       @@@++++++             ",
"                +++     @@+++@++             ",
"                @@++    @@@+@@@@             ",
"               @@@@++    @@@@@@              ",
"               @@@@@+    @@@@@               ",
"               @@@@@@+  @@@@@                ",
"               @@@@@@++@@@@@                 ",
"                @@@#@@@@@@@@                 ",
"                @@@##@@@@@@@@                ",
"                 @@###@@@@@@@                ",
"                @@@@##@@@#@@@                ",
"                @@@@@@@@###@                 ",
"                +@@@@@@@###@                 ",
"                 ++@@@@@##@@                 ",
"                   +@@@####                  ",
"                   @@@#####                  ",
"                  @@@######@                 ",
"                 @@@@#####@@                 ",
"                @@@@######@@                 ",
"                @@@######@@@                 ",
"                 @@#####@@@+                 ",
"                 @@#####@@+                  ",
"                  @@#####@@                  ",
"                 @@@@#####@@                 ",
"                 @@@@#####@@                 ",
"                  @@######@                  ",
"                 $$$$$$$$$$$                 ",
"                $$$$$$$$$$$$$                ",
"                 $$$$$$$$$$$                 ",
"                  $$$$$$$$$                  ",
"                  $$$$$$$$$                  ",
"                  $$$$$$$$$                  ",
"                  $$$$$$$$$                  ",
"                  $$$$$$$$$                  ",
"                  $$$$$$$$$                  ",
"                  $$$$$$$$$                  "};
