/* XPM */
static char * fire_column_medium_4_xpm[] = {
"45 90 7 1",
" 	c None",
".	c #EB4200",
"+	c #FF8C00",
"@	c #FFD400",
"#	c #F0EFE8",
"$	c #F6CC01",
"%	c #523008",
"                                             ",
"                                             ",
"                                             ",
"                                             ",
"                                             ",
"                                             ",
"                                             ",
"                                             ",
"                                             ",
"                                             ",
"                                             ",
"                                             ",
"                                             ",
"                                             ",
"                                             ",
"                                             ",
"                                             ",
"                                             ",
"                                             ",
"                                             ",
"                                             ",
"                                             ",
"                                             ",
"                                             ",
"                                             ",
"                                             ",
"                                             ",
"                                             ",
"                                             ",
"                         ..                  ",
"                          ..                 ",
"                           .                 ",
"                  ...                        ",
"                 ....                        ",
"                ...                          ",
"                ..                           ",
"                                             ",
"                        ..                   ",
"                       ....                  ",
"                        ....                 ",
"                         ...                 ",
"                          ..                 ",
"                      ...  .                 ",
"                   ....+..                   ",
"                 ...+++++...                 ",
"                ..++++++.....                ",
"                .++++.....+...               ",
"                ..+++...++++...              ",
"                 ..+....++++...              ",
"                  .......+.....              ",
"                   ...........               ",
"                .. ...........               ",
"               +......+++....                ",
"              +++++..+++++..                 ",
"              ++++++..+++.                   ",
"              +++++++++++.                   ",
"              +++@@++++++++                  ",
"               +@@@@++++++++                 ",
"               +@@@@@@+@@@++                 ",
"                +@@+@@@@@@@++                ",
"                 +.++@@@@@@++                ",
"                    ++@@@@++++               ",
"                     +@@@@@@++               ",
"                     ++@@@@@@++              ",
"                     +@@@@@@@++              ",
"                @++ +@@@##@@++               ",
"               @@@++@@@####@@+               ",
"              @@@@@@@@#####@@                ",
"              @@@@@@@#####@@+                ",
"              @@@@##@#####@@                 ",
"               @@#########@@                 ",
"                @########@@@                 ",
"                @########@@@                 ",
"                @@@#####@@@@@                ",
"               @@@@@####@##@@@               ",
"               @@@@#########@@               ",
"               @@@##########@@               ",
"                @@#########@@                ",
"                @@@#######@@@                ",
"                 @$#######@@                 ",
"                 %%%%%%%%%%%                 ",
"                %%%%%%%%%%%%%                ",
"                 %%%%%%%%%%%                 ",
"                  %%%%%%%%%                  ",
"                  %%%%%%%%%                  ",
"                  %%%%%%%%%                  ",
"                  %%%%%%%%%                  ",
"                  %%%%%%%%%                  ",
"                  %%%%%%%%%                  ",
"                  %%%%%%%%%                  "};
